{"title":"BBC Symphony - 3. New Nations and New Worlds","uid":6829553,"size":1169176137,"categoryP":"video","categoryS":"tv_shows","magnet":"?xt=urn:btih:ec2a75f3e414ef01e1fa423529cb7f0ceff5079e&amp;dn=BBC+Symphony+-+3.+New+Nations+and+New+Worlds&amp;tr=udp%3A%2F%2Ftracker.openbittorrent.com%3A80&amp;tr=udp%3A%2F%2Fopen.demonii.com%3A1337&amp;tr=udp%3A%2F%2Ftracker.coppersurfer.tk%3A6969&amp;tr=udp%3A%2F%2Fexodus.desync.com%3A6969","seeders":1,"leechers":0,"uploader":null,"files":3,"time":1321734554,"description":"BBC Symphony - 3. New Nations and New Worlds\n\nSimon Russell Beale continues his history of the symphony by taking a musical journey through the rise of nationalism in Europe into the New World. He discovers how nationalist voices such as Tchaikovsky, Dvorak and Sibelius brought the symphony to wider audiences and visits Dvorak's summer house as he left it at his death in 1904, a remarkable insight into the personal life of the great composer.   Simon follows the development of the symphony outside Europe and explores how growing urbanisation led to the construction and growing popularity of some of the world's greatest concert halls, visiting the Musikverein in Vienna, the Philharmonic Hall in St Petersburg and Carnegie Hall in New York.   The symphonies are played by the BBC Symphony Orchestra conducted by Sir Mark Elder.\n\t\nFormat                                   : MPEG-4\nFormat profile                           : Base Media\nCodec ID                                 : isom\nFile size                                : 1.09 GiB\nDuration                                 : 59mn 5s\nOverall bit rate                         : 2 638 Kbps\nWriting application                      : Lavf53.13.0\n\nVideo\nID                                       : 1\nFormat                                   : AVC\nFormat/Info                              : Advanced Video Codec\nFormat profile                           : &lt;a class=&quot;__cf_email__&quot; href=&quot;/cdn-cgi/l/email-protection&quot; data-cfemail=&quot;064e6f616e464a322837&quot;&gt;[email&amp;#160;protected]&lt;/a&gt;&lt;script cf-hash='f9e31' type=&quot;text/javascript&quot;&gt;\n/* &lt;![CDATA[ */!function(){try{var t=&quot;currentScript&quot;in document?document.currentScript:function(){for(var t=document.getElementsByTagName(&quot;script&quot;),e=t.length;e--;)if(t[e].getAttribute(&quot;cf-hash&quot;))return t[e]}();if(t&amp;&amp;t.previousSibling){var e,r,n,i,c=t.previousSibling,a=c.getAttribute(&quot;data-cfemail&quot;);if(a){for(e=&quot;&quot;,r=parseInt(a.substr(0,2),16),n=2;a.length-n;n+=2)i=parseInt(a.substr(n,2),16)^r,e+=String.fromCharCode(i);e=document.createTextNode(e),c.parentNode.replaceChild(e,c)}}}catch(u){}}();/* ]]&gt; */&lt;/script&gt;\nFormat settings, CABAC                   : Yes\nFormat settings, ReFrames                : 6 frames\nCodec ID                                 : avc1\nCodec ID/Info                            : Advanced Video Coding\nDuration                                 : 59mn 5s\nBit rate mode                            : Variable\nBit rate                                 : 2 538 Kbps\nMaximum bit rate                         : 3 500 Kbps\nWidth                                    : 1 280 pixels\nHeight                                   : 720 pixels\nDisplay aspect ratio                     : 16:9\nFrame rate mode                          : Constant\nFrame rate                               : 25.000 fps\nStandard                                 : PAL\nColor space                              : YUV\nChroma subsampling                       : 4:2:0\nBit depth                                : 8 bits\nScan type                                : Progressive\nBits/(Pixel*Frame)                       : 0.110\nStream size                              : 1.05 GiB (96%)\n\nAudio\nID                                       : 2\nFormat                                   : AAC\nFormat/Info                              : Advanced Audio Codec\nFormat profile                           : HE-AAC / LC\nCodec ID                                 : 40\nDuration                                 : 59mn 5s\nBit rate mode                            : Constant\nBit rate                                 : 96.0 Kbps\nChannel(s)                               : 2 channels\nChannel positions                        : Front: L R\nSampling rate                            : 48.0 KHz / 24.0 KHz\nCompression mode                         : Lossy\nStream size                              : 40.0 MiB (4%)\t\n\t","torrent":{"xt":"urn:btih:ec2a75f3e414ef01e1fa423529cb7f0ceff5079e","amp;dn":"BBC+Symphony+-+3.+New+Nations+and+New+Worlds","amp;tr":["udp%3A%2F%2Ftracker.openbittorrent.com%3A80","udp%3A%2F%2Fopen.demonii.com%3A1337","udp%3A%2F%2Ftracker.coppersurfer.tk%3A6969","udp%3A%2F%2Fexodus.desync.com%3A6969"],"infoHash":"ec2a75f3e414ef01e1fa423529cb7f0ceff5079e","infoHashBuffer":{"type":"Buffer","data":[236,42,117,243,228,20,239,1,225,250,66,53,41,203,127,12,239,245,7,158]},"announce":[],"urlList":[]}}